<?xml version="1.0" encoding="utf-8"?>
<!-- Generator: Adobe Illustrator 16.0.0, SVG Export Plug-In . SVG Version: 6.00 Build 0)  -->
<!DOCTYPE svg PUBLIC "-//W3C//DTD SVG 1.1//EN" "http://www.w3.org/Graphics/SVG/1.1/DTD/svg11.dtd">
<svg version="1.1" id="Layer_1" xmlns="http://www.w3.org/2000/svg" xmlns:xlink="http://www.w3.org/1999/xlink" x="0px" y="0px"
	 width="500px" height="500px" viewBox="0 0 500 500" enable-background="new 0 0 500 500" xml:space="preserve">
<g>
	<g>
		<rect x="87.891" y="87.891" fill="#FFEBBC" width="236.328" height="29.297"/>
	</g>
</g>
<g>
	<g>
		<rect x="236.328" y="205.078" fill="#FFEBBC" width="87.891" height="87.891"/>
	</g>
</g>
<g>
	<g>
		<path fill="#FFEBBC" d="M485.352,58.594H412.11V14.648C412.11,6.552,405.557,0,397.461,0H14.649C6.552,0,0,8.505,0,16.602v424.805
			C0,473.722,26.279,500,58.594,500c151.188,0,240.186,0,382.813,0C473.721,500,500,473.722,500,441.406V73.242
			C500,65.146,493.448,58.594,485.352,58.594z M338.867,441.406H73.242c-19.31,0-19.389-29.297,0-29.297h265.625
			C358.176,412.109,358.256,441.406,338.867,441.406z M338.867,382.813H73.242c-19.31,0-19.389-29.297,0-29.297h265.625
			C358.176,353.516,358.256,382.813,338.867,382.813z M73.242,234.375h87.891c19.31,0,19.389,29.297,0,29.297H73.242
			C53.933,263.672,53.854,234.375,73.242,234.375z M73.242,175.781h87.891c19.31,0,19.389,29.297,0,29.297H73.242
			C53.933,205.078,53.854,175.781,73.242,175.781z M73.242,292.969h87.891c19.31,0,19.389,29.297,0,29.297H73.242
			C53.933,322.266,53.854,292.969,73.242,292.969z M353.516,307.617c0,8.097-6.553,14.648-14.648,14.648H221.68
			c-8.097,0-14.648-6.552-14.648-14.648V190.43c0-8.097,6.552-14.648,14.648-14.648h117.188c8.096,0,14.648,6.552,14.648,14.648
			V307.617z M353.516,131.836c0,8.097-6.553,14.648-14.648,14.648H73.242c-8.097,0-14.648-6.552-14.648-14.648V73.242
			c0-8.097,6.552-14.648,14.648-14.648h265.625c8.096,0,14.648,6.552,14.648,14.648V131.836z M470.703,441.406
			c0,38.711-58.594,38.718-58.594,0c0-134.34,0-219.771,0-353.516h58.594V441.406z"/>
	</g>
</g>
</svg>
