<svg height="512" viewBox="0 0 512 512" width="512" xmlns="http://www.w3.org/2000/svg"><path d="m384.018 512h-256a40.047 40.047 0 0 1 -40-40v-136h336v136a40.047 40.047 0 0 1 -40 40z" fill="#fbe7ed"/><path d="m388.535 336a312.485 312.485 0 0 1 -214.441 176h209.924a40.047 40.047 0 0 0 40-40v-136z" fill="#fbd5e0"/><path d="m208.018 335.998h96v176h-96z" fill="#fda4c3"/><path d="m400.018 272h-288v-26.337a56 56 0 0 1 81.043-50.086l30.957 20.423h64l30.957-20.422a56 56 0 0 1 81.043 50.086z" fill="#d1c4e9"/><path d="m224.018 215.999h64v56h-64z" fill="#7e57c2"/><path d="m256.014 160.709-8.059-3.468c-8.984-3.836-87.937-39.157-87.937-95.516a61.962 61.962 0 0 1 96-51.539 61.962 61.962 0 0 1 96 51.539c0 56.25-78.953 91.672-87.957 95.524z" fill="#fd6fa0"/><path d="m456.022 152.733-5.891-2.578c-5.121-2.235-50.113-22.836-50.113-56.313 0-20.867 16.782-37.842 37.402-37.842a37.188 37.188 0 0 1 18.6 5 37.187 37.187 0 0 1 18.6-5c20.625 0 37.4 16.976 37.4 37.843 0 33.563-45.012 54.094-50.145 56.321z" fill="#fbc8d6"/><path d="m448.018 352h-384v-72a24.027 24.027 0 0 1 24-24h336a24.027 24.027 0 0 1 24 24z" fill="#fbc8d6"/><path d="m56.022 152.733-5.891-2.578c-5.121-2.235-50.113-22.836-50.113-56.313 0-20.867 16.782-37.842 37.402-37.842a37.188 37.188 0 0 1 18.6 5 37.188 37.188 0 0 1 18.6-5c20.625 0 37.4 16.976 37.4 37.843 0 33.563-45.012 54.094-50.145 56.321z" fill="#fbc8d6"/><path d="m456.018 240a8 8 0 1 1 8-8 8.022 8.022 0 0 1 -8 8zm0-32a8.023 8.023 0 0 1 -8-8v-24a8 8 0 1 1 16 0v24a8.026 8.026 0 0 1 -8 8z" fill="#fbd5e0"/><path d="m56.018 240a8 8 0 1 1 8-8 8.023 8.023 0 0 1 -8 8zm0-32a8.024 8.024 0 0 1 -8-8v-24a8 8 0 0 1 16 0v24a8.026 8.026 0 0 1 -8 8z" fill="#fbd5e0"/><path d="m256.018 200a8.024 8.024 0 0 1 -8-8v-8a8 8 0 0 1 16 0v8a8.026 8.026 0 0 1 -8 8z" fill="#fbd5e0"/><path d="m163.463 461.155-67.519-55.243a40.147 40.147 0 0 1 -8.731-51.937l60.336-97.975h96.192z" fill="#b39ddb"/><path d="m347.905 461.155-80.278-205.155h96.192l60.339 97.977a40.146 40.146 0 0 1 -8.73 51.937z" fill="#b39ddb"/><path d="m224.018 120a127.593 127.593 0 0 1 -40.888-6.789c24.054 25.928 59.023 41.553 64.825 44.031l8.059 3.468 8.047-3.46c9-3.852 87.957-39.274 87.957-95.524a61.146 61.146 0 0 0 -6.97-28.341 127.96 127.96 0 0 1 -121.03 86.615z" fill="#fd5991"/><path d="m24.018 128c-2.575 0-5.109-.168-7.628-.385 13.424 13.273 30.682 21.206 33.741 22.541l5.891 2.578 5.851-2.57c5.133-2.227 50.145-22.758 50.145-56.321a37.937 37.937 0 0 0 -6.367-21.09 87.975 87.975 0 0 1 -81.633 55.247z" fill="#fbb0c4"/><path d="m424.018 128c-2.575 0-5.11-.168-7.629-.385 13.425 13.273 30.683 21.206 33.742 22.541l5.891 2.578 5.851-2.57c5.133-2.227 50.145-22.758 50.145-56.321a37.937 37.937 0 0 0 -6.367-21.09 87.975 87.975 0 0 1 -81.633 55.247z" fill="#fbb0c4"/><g fill="#fbe7ed"><circle cx="208.018" cy="47.999" r="24"/><circle cx="244.018" cy="83.999" r="12"/><circle cx="432.018" cy="87.999" r="16"/><circle cx="32.018" cy="87.999" r="16"/></g><path d="m424.158 353.975-53.12-86.254a199.867 199.867 0 0 1 -34.7 163.869l11.569 29.565 67.523-55.243a40.146 40.146 0 0 0 8.728-51.937z" fill="#9575cd"/><path d="m94.305 404.3c.568.523 1.035 1.122 1.639 1.616l67.519 55.243 51.654-132.008a199.931 199.931 0 0 1 -120.812 75.149z" fill="#9575cd"/><circle cx="324.018" cy="291.998" fill="#e5def9" r="12"/><circle cx="172.018" cy="299.998" fill="#e5def9" r="12"/></svg>