<?xml version="1.0" encoding="iso-8859-1"?>
<!-- Generator: Adobe Illustrator 19.0.0, SVG Export Plug-In . SVG Version: 6.00 Build 0)  -->
<svg version="1.1" id="Capa_1" xmlns="http://www.w3.org/2000/svg" xmlns:xlink="http://www.w3.org/1999/xlink" x="0px" y="0px"
	 viewBox="0 0 512.026 512.026" style="enable-background:new 0 0 512.026 512.026;" xml:space="preserve">
<linearGradient id="SVGID_1_" gradientUnits="userSpaceOnUse" x1="-47.4425" y1="572.3055" x2="24.9885" y2="644.7345" gradientTransform="matrix(8 0 0 -8 342.9092 5085.0176)">
	<stop  offset="0" style="stop-color:#003F8A"/>
	<stop  offset="0.518" style="stop-color:#00D7DF"/>
	<stop  offset="1" style="stop-color:#006DF0"/>
</linearGradient>
<path style="fill:url(#SVGID_1_);" d="M416.013,48.002h-56.568c-0.753-2.065-2.329-3.725-4.352-4.584l-47.776-19.904
	c-24.419-28.334-67.185-31.508-95.519-7.089c-2.535,2.185-4.904,4.554-7.089,7.089l-47.776,19.904
	c-2.023,0.859-3.599,2.519-4.352,4.584H96.013c-4.418,0-8,3.582-8,8v32c0,4.418,3.582,8,8,8h58.008
	c1.013,1.201,2.361,2.073,3.872,2.504l45.52,12.528c2.765,3.374,5.845,6.476,9.2,9.264c-47.537,3.131-84.518,42.56-84.6,90.2v179.2
	c0,2.118,0.84,4.149,2.336,5.648l10.328,10.336c1.502,1.502,3.54,2.346,5.664,2.344h45.672v48c0.035,30.913,25.087,55.965,56,56h16
	c30.913-0.035,55.965-25.087,56-56v-48.024h45.672c2.124,0.002,4.162-0.842,5.664-2.344l10.328-10.336
	c1.496-1.499,2.336-3.53,2.336-5.648v-179.2c-0.095-47.63-37.072-87.045-84.6-90.176c3.355-2.788,6.435-5.89,9.2-9.264l45.52-12.528
	c1.511-0.431,2.859-1.303,3.872-2.504h58.008c4.418,0,8-3.582,8-8v-32C424.013,51.584,420.431,48.002,416.013,48.002z
	 M256.013,16.002c17.469,0.014,33.763,8.798,43.376,23.384l5.312,10.536c4.402,11.619,4.416,24.444,0.04,36.072l-7.2,13.176
	c-17.107,22.935-49.568,27.66-72.504,10.552c-4.008-2.99-7.563-6.544-10.552-10.552l-7.2-13.176c-4.395-11.625-4.395-24.455,0-36.08
	l5.312-10.528C222.218,24.789,238.53,16.003,256.013,16.002z M104.013,64.002h48v16h-48V64.002z M168.013,84.706V56.138
	l23.616-9.848c-5.022,14.644-4.807,30.577,0.608,45.08L168.013,84.706z M304.013,456.002c-0.026,22.08-17.92,39.974-40,40h-16
	c-22.08-0.026-39.974-17.92-40-40v-120c0.026-22.08,17.92-39.974,40-40h16c22.08,0.026,39.974,17.92,40,40V456.002z
	 M293.517,136.002c41.123,0.048,74.448,33.373,74.496,74.496v175.904l-5.6,5.6h-42.4v-56c-0.035-30.913-25.087-55.965-56-56h-16
	c-30.913,0.035-55.965,25.087-56,56v56h-42.4l-5.6-5.6V210.498c0.048-41.123,33.373-74.448,74.496-74.496L293.517,136.002z
	 M324.013,68.002c-0.01-7.386-1.232-14.721-3.616-21.712l23.616,9.848v28.568l-24.224,6.664
	C322.564,83.891,323.994,75.979,324.013,68.002z M408.013,80.002h-48v-16h48V80.002z"/>
<linearGradient id="SVGID_2_" gradientUnits="userSpaceOnUse" x1="-41.5639" y1="566.4268" x2="30.8681" y2="638.8558" gradientTransform="matrix(8 0 0 -8 342.9092 5085.0176)">
	<stop  offset="0" style="stop-color:#003F8A"/>
	<stop  offset="0.518" style="stop-color:#00D7DF"/>
	<stop  offset="1" style="stop-color:#006DF0"/>
</linearGradient>
<path style="fill:url(#SVGID_2_);" d="M336.013,232.002h8c4.418,0,8-3.582,8-8s-3.582-8-8-8h-8c-4.418,0-8,3.582-8,8
	S331.595,232.002,336.013,232.002z"/>
<linearGradient id="SVGID_3_" gradientUnits="userSpaceOnUse" x1="-44.0638" y1="568.9268" x2="28.3682" y2="641.3558" gradientTransform="matrix(8 0 0 -8 342.9092 5085.0176)">
	<stop  offset="0" style="stop-color:#003F8A"/>
	<stop  offset="0.518" style="stop-color:#00D7DF"/>
	<stop  offset="1" style="stop-color:#006DF0"/>
</linearGradient>
<path style="fill:url(#SVGID_3_);" d="M296.013,232.002h8c4.418,0,8-3.582,8-8s-3.582-8-8-8h-8c-4.418,0-8,3.582-8,8
	S291.595,232.002,296.013,232.002z"/>
<linearGradient id="SVGID_4_" gradientUnits="userSpaceOnUse" x1="-46.5638" y1="571.4267" x2="25.8682" y2="643.8557" gradientTransform="matrix(8 0 0 -8 342.9092 5085.0176)">
	<stop  offset="0" style="stop-color:#003F8A"/>
	<stop  offset="0.518" style="stop-color:#00D7DF"/>
	<stop  offset="1" style="stop-color:#006DF0"/>
</linearGradient>
<path style="fill:url(#SVGID_4_);" d="M256.013,232.002h8c4.418,0,8-3.582,8-8s-3.582-8-8-8h-8c-4.418,0-8,3.582-8,8
	S251.595,232.002,256.013,232.002z"/>
<linearGradient id="SVGID_5_" gradientUnits="userSpaceOnUse" x1="-56.5637" y1="581.4266" x2="15.8673" y2="653.8556" gradientTransform="matrix(8 0 0 -8 342.9092 5085.0176)">
	<stop  offset="0" style="stop-color:#003F8A"/>
	<stop  offset="0.518" style="stop-color:#00D7DF"/>
	<stop  offset="1" style="stop-color:#006DF0"/>
</linearGradient>
<path style="fill:url(#SVGID_5_);" d="M256.013,108.002c22.091,0,40-17.909,40-40s-17.909-40-40-40s-40,17.909-40,40
	C216.039,90.082,233.933,107.976,256.013,108.002z M256.013,44.002c13.255,0,24,10.745,24,24s-10.745,24-24,24
	c-13.255,0-24-10.745-24-24S242.758,44.002,256.013,44.002z"/>
<linearGradient id="SVGID_6_" gradientUnits="userSpaceOnUse" x1="-36.3132" y1="561.1761" x2="36.1178" y2="633.6061" gradientTransform="matrix(8 0 0 -8 342.9092 5085.0176)">
	<stop  offset="0" style="stop-color:#003F8A"/>
	<stop  offset="0.518" style="stop-color:#00D7DF"/>
	<stop  offset="1" style="stop-color:#006DF0"/>
</linearGradient>
<path style="fill:url(#SVGID_6_);" d="M256.013,312.002c-4.418,0-8,3.582-8,8v144c0,4.418,3.582,8,8,8s8-3.582,8-8v-144
	C264.013,315.584,260.431,312.002,256.013,312.002z"/>
<linearGradient id="SVGID_7_" gradientUnits="userSpaceOnUse" x1="-37.8129" y1="562.6758" x2="34.6171" y2="635.1068" gradientTransform="matrix(8 0 0 -8 342.9092 5085.0176)">
	<stop  offset="0" style="stop-color:#003F8A"/>
	<stop  offset="0.518" style="stop-color:#00D7DF"/>
	<stop  offset="1" style="stop-color:#006DF0"/>
</linearGradient>
<path style="fill:url(#SVGID_7_);" d="M232.013,312.002c-4.418,0-8,3.582-8,8v144c0,4.418,3.582,8,8,8s8-3.582,8-8v-144
	C240.013,315.584,236.431,312.002,232.013,312.002z"/>
<linearGradient id="SVGID_8_" gradientUnits="userSpaceOnUse" x1="-34.8128" y1="559.6758" x2="37.6172" y2="632.1068" gradientTransform="matrix(8 0 0 -8 342.9092 5085.0176)">
	<stop  offset="0" style="stop-color:#003F8A"/>
	<stop  offset="0.518" style="stop-color:#00D7DF"/>
	<stop  offset="1" style="stop-color:#006DF0"/>
</linearGradient>
<path style="fill:url(#SVGID_8_);" d="M280.013,312.002c-4.418,0-8,3.582-8,8v144c0,4.418,3.582,8,8,8s8-3.582,8-8v-144
	C288.013,315.584,284.431,312.002,280.013,312.002z"/>
<g>
</g>
<g>
</g>
<g>
</g>
<g>
</g>
<g>
</g>
<g>
</g>
<g>
</g>
<g>
</g>
<g>
</g>
<g>
</g>
<g>
</g>
<g>
</g>
<g>
</g>
<g>
</g>
<g>
</g>
</svg>
