<?xml version="1.0" encoding="utf-8"?>
<!-- Generator: Adobe Illustrator 16.0.0, SVG Export Plug-In . SVG Version: 6.00 Build 0)  -->
<!DOCTYPE svg PUBLIC "-//W3C//DTD SVG 1.1//EN" "http://www.w3.org/Graphics/SVG/1.1/DTD/svg11.dtd">
<svg version="1.1" id="Capa_1" xmlns="http://www.w3.org/2000/svg" xmlns:xlink="http://www.w3.org/1999/xlink" x="0px" y="0px"
	 width="500px" height="500px" viewBox="0 0 500 500" enable-background="new 0 0 500 500" xml:space="preserve">
<g>
	<path fill="#FF7FD8" d="M381.156,37.923c-78.777-2.813-103.294,73.15-103.294,73.15s-24.518-75.963-103.295-73.15
		C111.762,40.281,60.823,89.576,56.403,152.27c8.682-2.635,17.663-4.155,26.728-4.522c33.564-1.471,65.177,15.787,82.093,44.814
		c17.092-28.845,48.587-46.038,82.093-44.814c32.811,1.035,63.332,17.074,82.796,43.508c18.833,24.529,25.455,56.305,17.986,86.313
		c-12.158,46.724-47.729,79.782-85.408,114.749l-15.977,14.972c19.292,20.097,31.752,34.264,31.752,34.264
		s30.144-33.058,69.03-73.451c58.681-60.288,130.021-108.318,149.214-182.071C514.193,116.7,460.033,40.837,381.156,37.923
		L381.156,37.923z"/>
	<path fill="#FF7FD8" d="M328.102,272.545c5.938-24.091,0.574-49.576-14.569-69.231c-15.741-21.382-40.386-34.407-66.92-35.369
		c-54.26-2.311-71.643,50.24-71.844,50.843c-1.733,5.271-7.412,8.142-12.684,6.408c-3.033-0.997-5.41-3.375-6.408-6.408
		c-0.703-2.01-17.383-50.944-68.729-50.944h-3.015c-26.534,0.962-51.179,13.987-66.92,35.37
		c-15.178,19.639-20.578,45.125-14.67,69.231c10.65,40.996,44.211,72.145,79.681,105.002c11.857,11.053,24.216,22.508,35.872,34.465
		c20.096,21.201,37.981,40.192,47.427,50.24c9.445-10.048,26.828-29.039,47.427-50.24c11.656-11.957,23.915-23.412,35.872-34.465
		C283.891,344.69,317.451,313.541,328.102,272.545L328.102,272.545z M232.143,203.816c-0.844-5.462,2.883-10.579,8.341-11.455
		c15.917-2.242,32.09,1.675,45.216,10.952c12.053,10.225,19.059,25.191,19.191,40.997c0.345,5.516-3.83,10.275-9.344,10.65h-0.704
		c-5.286,0.013-9.678-4.072-10.048-9.344c0.106-10.086-4.097-19.737-11.556-26.527c-8.836-5.979-19.583-8.451-30.144-6.934
		C237.814,212.707,233.018,209.054,232.143,203.816z"/>
</g>
</svg>
