<?xml version="1.0" encoding="iso-8859-1"?>
<!-- Generator: Adobe Illustrator 22.1.0, SVG Export Plug-In . SVG Version: 6.00 Build 0)  -->
<svg xmlns="http://www.w3.org/2000/svg" xmlns:xlink="http://www.w3.org/1999/xlink" version="1.1" id="Layer_1_1_" x="0px" y="0px" viewBox="0 0 64 64" style="enable-background:new 0 0 64 64;" xml:space="preserve" width="512" height="512">
<linearGradient id="SVGID_1_" gradientUnits="userSpaceOnUse" x1="32" y1="63" x2="32" y2="1">
	<stop offset="0" style="stop-color:#9F2FFF"/>
	<stop offset="1" style="stop-color:#0BB1D3"/>
</linearGradient>
<path style="fill:url(#SVGID_1_);" d="M11,8c0,1.075-0.355,2.141-1,3c-0.939,1.252-2.434,2-4,2H5v2h1c1.565,0,3.061,0.748,4,2  c0.645,0.859,1,1.925,1,3v2h2v-2c0-1.075,0.355-2.141,1-3c0.939-1.252,2.434-2,4-2h1v-2h-1c-1.565,0-3.061-0.748-4-2  c-0.645-0.859-1-1.925-1-3V6h-2V8z M12.4,12.2c0.552,0.736,1.246,1.338,2.022,1.8c-0.776,0.462-1.47,1.064-2.022,1.8  c-0.151,0.201-0.273,0.42-0.4,0.635c-0.128-0.216-0.249-0.435-0.4-0.635c-0.552-0.736-1.246-1.338-2.022-1.8  c0.776-0.462,1.47-1.064,2.022-1.8c0.151-0.201,0.273-0.42,0.4-0.635C12.127,11.78,12.249,11.999,12.4,12.2z M13,3h-2V1h2V3z M13,26  h-2v-2h2V26z M23,13v2h-2v-2H23z M1,13h2v2H1V13z M53,57c0-1.075,0.355-2.141,1-3c0.939-1.252,2.434-2,4-2h1v-2h-1  c-1.565,0-3.061-0.748-4-2.001c-0.645-0.858-1-1.924-1-2.999v-2h-2v2c0,1.075-0.355,2.141-1,3c-0.939,1.252-2.434,2-4,2h-1v2h1  c1.565,0,3.061,0.748,4,2.001c0.645,0.858,1,1.924,1,2.999v2h2V57z M51.6,52.801c-0.552-0.736-1.247-1.339-2.023-1.801  c0.776-0.462,1.47-1.064,2.022-1.8c0.151-0.201,0.273-0.42,0.4-0.636c0.128,0.215,0.249,0.434,0.4,0.635  c0.552,0.736,1.247,1.339,2.023,1.801c-0.776,0.462-1.47,1.064-2.022,1.8c-0.151,0.201-0.273,0.42-0.4,0.636  C51.872,53.22,51.751,53.001,51.6,52.801z M51,38h2v2h-2V38z M51,61h2v2h-2V61z M61,50h2v2h-2V50z M41,52v-2h2v2H41z M44.566,23  H19.434l-6.682,11.137L32,54.454l19.248-20.317L44.566,23z M36.636,35L32,49.679L27.364,35H36.636z M27.766,33L32,25.944L36.234,33  H27.766z M33.766,25h8.468L38,32.056L33.766,25z M26,32.056L21.766,25h8.468L26,32.056z M24.234,33h-8.468L20,25.944L24.234,33z   M25.267,35l4.471,14.159L16.325,35H25.267z M38.733,35h8.942L34.262,49.159L38.733,35z M39.766,33L44,25.944L48.234,33H39.766z   M50,17h-2v-2h2V17z M48,17v2h-2v-2H48z M48,19h2v2h-2V19z M50,17h2v2h-2V17z M17,49h-2v-2h2V49z M15,49v2h-2v-2H15z M15,53v-2h2v2  H15z M17,51v-2h2v2H17z"/>
</svg>
