<?xml version="1.0" encoding="utf-8"?>
<!-- Generator: Adobe Illustrator 16.0.0, SVG Export Plug-In . SVG Version: 6.00 Build 0)  -->
<!DOCTYPE svg PUBLIC "-//W3C//DTD SVG 1.1//EN" "http://www.w3.org/Graphics/SVG/1.1/DTD/svg11.dtd">
<svg version="1.1" id="圖層_1" xmlns="http://www.w3.org/2000/svg" xmlns:xlink="http://www.w3.org/1999/xlink" x="0px" y="0px"
	 width="512px" height="512px" viewBox="0 0 512 512" enable-background="new 0 0 512 512" xml:space="preserve">
<path fill="#FFEBBC" d="M467,90c-24.813,0-45,20.188-45,45c0,19.531,12.578,36.023,30,42.238V270h-30v90h15
	c24.813,0,45-20.188,45-45V177.238c17.422-6.215,30-22.707,30-42.238C512,110.188,491.813,90,467,90z"/>
<path fill="#FFEBBC" d="M151,120h90v30h-90V120z"/>
<path fill="#FFEBBC" d="M271,360h121V240H271V360z M316,270h30v60h-30V270z"/>
<path fill="#FFEBBC" d="M121,240H0v120h121V240z M76,330H46v-60h30V330z"/>
<path fill="#FFEBBC" d="M392,67.473C337.371,27.324,264.598,0,196,0C127.395,0,54.621,27.332,0,67.473V210h392V67.473z M271,180H121
	V90h150V180z"/>
<path fill="#FFEBBC" d="M241,360V240h-90v120H241z M181,270h30v60h-30V270z"/>
<path fill="#FFEBBC" d="M121,452h150v60h121V390H0v122h121V452z"/>
<path fill="#FFEBBC" d="M151,482h90v30h-90V482z"/>
</svg>
