<?xml version="1.0" encoding="utf-8"?>
<!-- Generator: Adobe Illustrator 16.0.0, SVG Export Plug-In . SVG Version: 6.00 Build 0)  -->
<!DOCTYPE svg PUBLIC "-//W3C//DTD SVG 1.1//EN" "http://www.w3.org/Graphics/SVG/1.1/DTD/svg11.dtd">
<svg version="1.1" id="Capa_1" xmlns="http://www.w3.org/2000/svg" xmlns:xlink="http://www.w3.org/1999/xlink" x="0px" y="0px"
	 width="500px" height="500px" viewBox="0 0 500 500" enable-background="new 0 0 500 500" xml:space="preserve">
<g>
	<path fill="#FFEBBC" d="M455.292,142.972c-66.041-108.501-165.526-33.016-165.526-33.016c-6.452,4.876-18.349,8.886-26.433,8.904
		l-26.647,0.019c-8.084,0.009-19.981-4-26.424-8.876c0,0-99.495-75.504-165.545,32.997C-21.314,251.464,5.296,369.588,5.296,369.588
		c4.662,28.922,20.027,48.223,49.024,45.799c28.913-2.416,91.672-77.893,91.672-77.893c5.185-6.219,16.047-11.3,24.111-11.3
		l159.755-0.028c8.074,0,18.927,5.082,24.102,11.301c0,0,62.769,75.477,91.729,77.892c28.96,2.424,44.362-16.896,48.996-45.799
		C494.676,369.56,521.332,251.455,455.292,142.972z M189.964,231.287h-34.256v33.016c0,0-7.254,5.539-18.48,5.398
		c-11.207-0.168-16.279-6.042-16.279-6.042v-32.363H88.595c0,0-4.037-4.14-5.119-15.04c-1.063-10.899,4.467-19.71,4.467-19.71
		h34.265v-34.256c0,0,7.049-3.776,17.184-3.487c10.145,0.317,17.576,4.13,17.576,4.13l-0.14,33.603h32.354
		c0,0,5.65,7.254,6.116,16.019C195.763,221.329,189.964,231.287,189.964,231.287z M347.089,268.918
		c-15.002,0-27.096-12.131-27.096-27.114c0-15.011,12.094-27.114,27.096-27.114c14.937,0,27.123,12.103,27.123,27.114
		C374.212,256.797,362.026,268.918,347.089,268.918z M347.089,194.318c-15.002,0-27.096-12.121-27.096-27.104
		c0-15.012,12.094-27.114,27.096-27.114c14.937,0,27.123,12.102,27.123,27.114C374.212,182.207,362.026,194.318,347.089,194.318z
		 M414.612,234.364c-15.002,0-27.095-12.121-27.095-27.114c0-15.002,12.093-27.113,27.095-27.113
		c14.938,0,27.123,12.111,27.123,27.113C441.735,222.243,429.549,234.364,414.612,234.364z"/>
</g>
</svg>
