<?xml version="1.0" encoding="utf-8"?>
<!-- Generator: Adobe Illustrator 16.0.0, SVG Export Plug-In . SVG Version: 6.00 Build 0)  -->
<!DOCTYPE svg PUBLIC "-//W3C//DTD SVG 1.1//EN" "http://www.w3.org/Graphics/SVG/1.1/DTD/svg11.dtd">
<svg version="1.1" id="圖層_1" xmlns="http://www.w3.org/2000/svg" xmlns:xlink="http://www.w3.org/1999/xlink" x="0px" y="0px"
	 width="192px" height="192px" viewBox="0 0 192 192" enable-background="new 0 0 192 192" xml:space="preserve">
<path fill="#FFEBBC" d="M191.602,181.492l-8-23.999c-1.102-3.297-4.102-5.5-7.602-5.5H16.015c-3.398,0-6.5,2.203-7.597,5.5
	l-8,23.999c-1.602,5.102,2.199,10.499,7.597,10.499H184C189.301,191.89,193.199,186.594,191.602,181.492z"/>
<path fill="#FFEBBC" d="M64.013,135.998v7.996h39.995v-7.996c0-4.402-3.598-8-8-8H72.009
	C67.611,127.998,64.013,131.596,64.013,135.998z"/>
<path fill="#FFEBBC" d="M160.001,135.998c0-4.402-3.598-8-7.999-8h-23.996c-4.402,0-7.999,3.598-7.999,8v7.996h39.994V135.998z"/>
<path fill="#FFEBBC" d="M32.015,79.2v64.794h15.999V79.2C69.61,74.801,83.61,53.705,79.212,32.006
	C74.81,10.406,53.611-3.59,32.015,0.809S-3.582,26.405,0.817,48.006C4.016,63.704,16.316,76,32.015,79.2z M56.014,16.007
	c4.398,0,8,3.602,8,8c0,4.398-3.602,8-8,8c-4.402,0-8-3.602-8-8C48.014,19.608,51.611,16.007,56.014,16.007z"/>
</svg>
